<svg xmlns="http://www.w3.org/2000/svg" viewBox="0 0 24 24"><path fill="currentColor" d="M 9.7534304,4.5 A 3,3 0 0 0 7.63243,5.3775 l -4.503,4.5 a 3,3 0 0 0 0,4.245 l 4.503,4.5 A 3,3 0 0 0 9.7534304,19.5 H 18.75043 a 3,3 0 0 0 3,-3 v -9 a 3,3 0 0 0 -3,-3 z M 8.69293,6.4395 A 1.5,1.5 0 0 1 9.7534304,6 H 18.75043 a 1.5,1.5 0 0 1 1.5,1.5 v 9 a 1.5,1.5 0 0 1 -1.5,1.5 H 9.7534304 A 1.5,1.5 0 0 1 8.69293,17.5605 l -4.503,-4.5 a 1.5,1.5 0 0 1 0,-2.121 z m 3.0885,2.0295 a 0.7509474,0.7509474 0 1 0 -1.062,1.062 l 2.4705,2.469 -2.4705,2.469 a 0.7509474,0.7509474 0 0 0 1.062,1.062 l 2.469,-2.4705 2.469,2.4705 a 0.7509474,0.7509474 0 0 0 1.062,-1.062 L 15.31093,12 17.78143,9.531 a 0.7509474,0.7509474 0 0 0 -1.062,-1.062 l -2.469,2.4705 z" /></svg>