<svg xmlns="http://www.w3.org/2000/svg" viewBox="0 0 24 24"><path fill="currentColor" d="m 19.199219,5.9804687 c -0.373967,0 -0.738282,0.2682278 -0.738282,0.7402344 v 4.3183599 c 10e-7,0.919885 -0.740271,1.660156 -1.660156,1.660156 H 6.6640625 L 9.3867188,10.138672 C 9.5218406,10.011339 9.59823,9.8647293 9.6210938,9.703125 9.7125162,9.0569372 8.9132179,8.5515117 8.3730469,9.0605469 L 4.2929687,12.900391 c -0.3100526,0.291985 -0.3101135,0.786082 0,1.078125 l 4.0800782,3.839843 c 0.5402829,0.509141 1.3394507,0.0036 1.2480469,-0.642578 -0.022859,-0.161602 -0.099098,-0.308067 -0.234375,-0.435547 L 6.6640625,14.179688 H 16.800781 c 1.73457,-1e-6 3.138672,-1.406269 3.138672,-3.140625 V 6.7207031 c 0,-0.4731183 -0.366267,-0.7402343 -0.740234,-0.7402344 z" /></svg>