<svg xmlns="http://www.w3.org/2000/svg" viewBox="0 0 24 24"><path fill="currentColor" d="m 10.905954,4.8270177 c 0.572142,-0.6762072 1.614738,-0.6762072 2.18688,0 l 6.3552,7.4908793 c 0.53088,0.62496 0.08928,1.58784 -0.72864,1.58784 h -2.8896 v 4.81152 c 0.0016,0.529821 -0.426341,0.960763 -0.95616,0.96288 H 9.1261147 c -0.5305697,-0.0011 -0.9596728,-0.432312 -0.95808,-0.96288 v -4.81152 h -2.88864 c -0.816,0 -1.2576,-0.96288 -0.72864,-1.58784 z M 12.266416,6.217 C 12.075823,5.9916158 11.918966,5.9912585 11.728344,6.2166427 L 6.4369851,12.413 8.647,12.412601 c 0.4974416,5.3e-4 1.009555,0.458929 1.0025522,1.012399 L 9.65,18.177121 14.344294,18.155021 14.344,13.425 c 0.0034,-0.601034 0.492903,-1.01147 1.008,-1.012 h 2.20414 z" /></svg>
